<?xml version="1.0" encoding="utf-8"?>
<!-- Generator: Adobe Illustrator 22.1.0, SVG Export Plug-In . SVG Version: 6.00 Build 0)  -->
<svg version="1.1" id="Layer_1" xmlns="http://www.w3.org/2000/svg" xmlns:xlink="http://www.w3.org/1999/xlink" x="0px" y="0px"
	 viewBox="0 0 250 250" style="enable-background:new 0 0 250 250;" xml:space="preserve">
<style type="text/css">
	.st0{fill:#5B1600;}
	.st1{fill:#F9C606;}
	.st2{fill:#FFFFFF;}
</style>
<g>
	<path class="st0" d="M1.7,125C1.7,56,56.9,0,125,0s123.3,55.9,123.3,125c0,69-55.2,125-123.3,125C57,249.9,1.7,194,1.7,125L1.7,125
		z"/>
	<path class="st1" d="M153.2,91.7c-2.8-4.6,10-7.5,9.2-17.4c-2.3,4.3-11,9.4-13.9,7c-2.3-2,0.2-5.5,3-7.2c3.4-2.1,7.8-3.6,11.2-7.1
		c3.3-3.5,2.2-8.3,4.5-11.8c-2.5,0.5-5,4.6-7.2,6.1c-2.3,1.5-4,0-3.3-1.9c1.1-2.9,5.5-7.3,1.9-12.7c0.5,2.1-1.3,7.4-3.7,7.2
		c-1.9-0.2-1.2-3.3-3.1-4.7c0.3,5.5-3.3,12.7-9,14.6c-3.9,1.3-8.5,0.2-6.8-6.4c2.2-8.6,9.6-12.2,11.8-17.9
		c-7.5,1.5-1.9-9.4-0.6-11.7c-3,0.4-5.6,7-9.4,8c-3.5,1-5.7-1.8-4.4-5.2c0.9-2.5,4.2-4.9,5-7.9c-6.7,2.6-3.3-5.5-3.3-6.4
		c-2,1.2-3.3,5.3-5.5,4.7c-2.2-0.6-2.9-8.8-4-12.2c-0.1-0.3-0.5-0.3-0.6,0.1c-0.8,3.8-2.1,12.8-5.7,14.1c-2.4,0.9-5-2.7-5.9-4.8
		c-1.1,4.1,2.8,9.8,3.8,13.2c1.4,4.6-0.8,6.4-4.8,3.9c-3-1.9-6.6-6.4-10.9-7.2c3.1,2.7,8.4,13.2-1,12.2c1.5,2.9,13.8,10.7,13.5,21.6
		c-0.1,5.5-5.3,3.8-8.2,2.2c-6-3.2-8.3-10-8.6-14.6c-0.9,1.5-1.5,3.3-1.3,7.2c0.3,4.1-2.4,2.3-4.3,0.6c-1.7-1.5-3.7-5-3.7-8.8
		c-1.5,2.1-1.7,5.7-0.7,8.8c0.7,2.3,1.3,3.9,0.6,4.5c-0.7,0.6-3,0-4.6-1.8c0.6,5.5,5.7,8.8,10.4,10.9c7.3,3.2,9.4,8.4,7.8,10.7
		c-1.3,1.8-5.3,0.7-7.9-0.5c-2.5-1.1-6-3.8-6.9-6.2C85,84.6,99.9,87,96.8,91.8L153.2,91.7z"/>
	<path class="st2" d="M165.6,96.9H85c0,14,9.7,26.1,23.6,31.6c1.3,2.2,3,4.2,5,5.7v62.9c0,1,0.8,1.7,1.8,1.7h3.6v7
		c-3.1,1.1-5.2,3-5.2,5.5c0,3.2,3.5,7.2,8.2,9v4.9c-1.5,0.3-2.6,0.9-2.6,1.9c0,0.9,0.9,1.7,2.3,2.2c-1.8,0.6-3,1.7-3,3.3
		c0,2.6,2.2,6.7,6.1,9.2c0.3,0.2,0.6,0.2,0.9,0c3.9-2.5,6.1-6.6,6.1-9.2c0-1.7-1.2-2.7-3-3.3c1.4-0.5,2.3-1.3,2.3-2.2
		c0-1-1-1.5-2.6-1.9v-5c5-1.9,8.2-5.7,8.2-8.9c0-2.5-2.1-4.4-5.2-5.5v-7h3.6c1,0,1.8-0.8,1.8-1.7v-62.9c2.1-1.5,3.8-3.5,5-5.7
		C155.9,123,165.6,110.9,165.6,96.9z"/>
</g>
</svg>
